<svg xmlns="http://www.w3.org/2000/svg" width="14.277" height="9.522" viewBox="0 0 14.277 9.522">
  <path id="Icon_ionic-ios-arrow-round-forward" data-name="Icon ionic-ios-arrow-round-forward" d="M16.98,11.434a.648.648,0,0,0,0,.912l3.015,3.02H8.515a.645.645,0,0,0,0,1.289h11.47l-3.015,3.02a.653.653,0,0,0,0,.912.642.642,0,0,0,.907,0l4.086-4.116h0a.724.724,0,0,0,.134-.2.615.615,0,0,0,.05-.248.646.646,0,0,0-.183-.451l-4.086-4.116A.632.632,0,0,0,16.98,11.434Z" transform="translate(-7.875 -11.252)" fill="#fff"/>
</svg>
