<svg xmlns="http://www.w3.org/2000/svg" width="160.749" height="397.161" viewBox="0 0 160.749 397.161">
  <g id="Group_4086" data-name="Group 4086" transform="translate(-460.739 -412.55)" opacity="0.504">
    <path id="Path_3438" data-name="Path 3438" d="M542.892,520.169a9.11,9.11,0,0,1-9.114,9.108H479.1a9.11,9.11,0,0,1-9.114-9.108V477.924h72.907Z" transform="translate(37.565 265.614)" fill="#969696"/>
    <rect id="Rectangle_2" data-name="Rectangle 2" width="79.742" height="18.225" transform="translate(504.131 730.246)" fill="#b4b4b4"/>
    <path id="Path_3439" data-name="Path 3439" d="M519.781,496.446a9.109,9.109,0,0,1-8.708,6.43H483.524a9.114,9.114,0,0,1-8.708-6.43l-2.582-8.379h50.128Z" transform="translate(46.703 306.824)" fill="#505050"/>
    <g id="Group_4083" data-name="Group 4083" transform="translate(507.547 758.148)">
      <rect id="Rectangle_3" data-name="Rectangle 3" width="72.909" height="3.857" transform="translate(0 23.213)" fill="#b4b4b4"/>
      <rect id="Rectangle_4" data-name="Rectangle 4" width="72.909" height="3.866" transform="translate(0 11.604)" fill="#b4b4b4"/>
      <rect id="Rectangle_5" data-name="Rectangle 5" width="72.909" height="3.862" fill="#b4b4b4"/>
    </g>
    <path id="Path_3440" data-name="Path 3440" d="M574.665,514.607H504.03l-42.145-48.983H616.81Z" transform="translate(4.654 215.639)" fill="#e1e1e1"/>
    <rect id="Rectangle_6" data-name="Rectangle 6" width="154.925" height="52.968" transform="translate(466.539 628.295)" fill="#ebebeb"/>
    <path id="Path_3441" data-name="Path 3441" d="M498.427,509.846H475.259c0-16.591,0-39.309-13.078-50.62L477.33,441.7C498.427,459.94,498.427,489.968,498.427,509.846Z" transform="translate(5.858 118.448)" fill="#e1e1e1"/>
    <path id="Path_3442" data-name="Path 3442" d="M565.239,487.162a15.82,15.82,0,0,1-3.413-.37L482.4,469.5a15.949,15.949,0,1,1,6.784-31.168l79.438,17.3a15.949,15.949,0,0,1-3.382,31.532Z" transform="translate(36.974 103.251)" fill="#e1e1e1"/>
    <path id="Path_3443" data-name="Path 3443" d="M476.681,493.789a15.949,15.949,0,0,1-3.382-31.532l125.5-27.345a15.95,15.95,0,0,1,6.795,31.168l-125.511,27.34A15.691,15.691,0,0,1,476.681,493.789Z" transform="translate(0 89.364)" fill="#ebebeb"/>
    <path id="Path_3444" data-name="Path 3444" d="M477.082,484.93A15.95,15.95,0,0,1,473.7,453.4l121.38-26.439a15.946,15.946,0,0,1,6.784,31.163l-121.37,26.444A16.017,16.017,0,0,1,477.082,484.93Z" transform="translate(1.661 57.046)" fill="#ebebeb"/>
    <path id="Path_3445" data-name="Path 3445" d="M477.414,476.334a15.954,15.954,0,0,1-3.372-31.542L592.03,419.1a15.948,15.948,0,1,1,6.774,31.168l-117.978,25.69A16.051,16.051,0,0,1,477.414,476.334Z" transform="translate(3.019 25.117)" fill="#ebebeb"/>
    <path id="Path_3446" data-name="Path 3446" d="M478.819,461.226a15.951,15.951,0,0,1-3.372-31.537L552.47,412.92a15.947,15.947,0,1,1,6.79,31.163l-77.028,16.779A16.032,16.032,0,0,1,478.819,461.226Z" transform="translate(8.733 0)" fill="#ebebeb"/>
    <path id="Path_3447" data-name="Path 3447" d="M517.376,460.931a12.049,12.049,0,1,0-20.191-13.154c-12.156,18.662-12.156,42.326-12.156,59.611h24.09C509.119,493.127,509.119,473.589,517.376,460.931Z" transform="translate(98.689 120.905)" fill="#ebebeb"/>
    <g id="Group_4084" data-name="Group 4084" transform="translate(544.024 412.554)" opacity="0.2" style="mix-blend-mode: screen;isolation: isolate">
      <path id="Path_3448" data-name="Path 3448" d="M554.653,538.942h-13.67c0-13.483.091-31.578,7.022-44.24a16.427,16.427,0,0,0,2.957-6.2A15.987,15.987,0,0,0,538.75,469.5l-7.883-1.681,7.883-1.737a15.952,15.952,0,1,0-6.79-31.173l-54.771,11.948v41.917l43.562,9.483c-3.878,14.121-3.878,28.885-3.878,40.686H477.189v181.4h13.756a9.139,9.139,0,0,0,8.708-6.425l2.6-8.385h2.278a9.139,9.139,0,0,0,9.114-9.108V659.1h3.372V640.88h-4.557l42.2-48.985Z" transform="translate(-477.189 -323.187)" fill="#fff"/>
      <path id="Path_3449" data-name="Path 3449" d="M536.7,458.123l-59.51,12.946V438.444l52.721-11.488a15.949,15.949,0,0,1,6.789,31.168Z" transform="translate(-477.189 -355.51)" fill="#fff"/>
      <path id="Path_3450" data-name="Path 3450" d="M535.008,450.264,477.189,462.84V430.219L528.224,419.1a15.946,15.946,0,0,1,6.784,31.163Z" transform="translate(-477.189 -387.431)" fill="#fff"/>
      <path id="Path_3451" data-name="Path 3451" d="M501.157,444.079l-23.968,5.245V416.653l17.179-3.737a15.947,15.947,0,0,1,6.79,31.163Z" transform="translate(-477.189 -412.551)" fill="#fff"/>
    </g>
    <g id="Group_4085" data-name="Group 4085" transform="translate(544.024 412.554)" opacity="0.1" style="mix-blend-mode: screen;isolation: isolate">
      <path id="Path_3452" data-name="Path 3452" d="M501.157,444.079l-23.968,5.245V416.653l17.179-3.737a15.947,15.947,0,0,1,6.79,31.163Z" transform="translate(-477.189 -412.551)" fill="#fff"/>
      <path id="Path_3453" data-name="Path 3453" d="M535.008,450.264,477.189,462.84V430.219L528.224,419.1a15.946,15.946,0,0,1,6.784,31.163Z" transform="translate(-477.189 -387.431)" fill="#fff"/>
      <path id="Path_3454" data-name="Path 3454" d="M536.7,458.123l-59.51,12.946V438.444l52.721-11.488a15.949,15.949,0,0,1,6.789,31.168Z" transform="translate(-477.189 -355.51)" fill="#fff"/>
      <path id="Path_3455" data-name="Path 3455" d="M554.653,591.9l-42.2,48.985h4.557V659.1h-3.372v37.324a9.139,9.139,0,0,1-9.114,9.108h-2.278l-2.6,8.385a9.139,9.139,0,0,1-8.708,6.425H477.189v-181.4h39.684c0-11.8,0-26.565,3.878-40.686l-43.562-9.483V446.857l54.771-11.948a15.952,15.952,0,1,1,6.79,31.173l-7.883,1.737,7.883,1.681A15.987,15.987,0,0,1,550.962,488.5a16.427,16.427,0,0,1-2.957,6.2c-6.931,12.663-7.022,30.758-7.022,44.24h13.67Z" transform="translate(-477.189 -323.187)" fill="#fff"/>
    </g>
  </g>
</svg>
