<svg xmlns="http://www.w3.org/2000/svg" width="107.784" height="97.913" viewBox="0 0 107.784 97.913">
  <g id="Group_4325" data-name="Group 4325" transform="translate(-262.647 -887.492)">
    <path id="Path_3741" data-name="Path 3741" d="M393.549,949.049H380.215l7.1-14.941a1.075,1.075,0,0,0-.917-1.6H377.41a.824.824,0,0,0-1.009.526l-9.551,22.292a1.077,1.077,0,0,0,.917,1.6l12.782-.313L367.24,984.8a1.063,1.063,0,0,0,1.835,1.073l25.392-35.23A1.07,1.07,0,0,0,393.549,949.049Z" transform="translate(-63.252 -27.336)" fill="#f5dc3a"/>
    <g id="Group_4322" data-name="Group 4322" transform="translate(262.647 983.934)">
      <g id="Group_4318" data-name="Group 4318" transform="translate(0)">
        <path id="Path_3742" data-name="Path 3742" d="M263.359,1134.76h19.083a.736.736,0,0,0,0-1.471H263.359a.736.736,0,0,0,0,1.471Z" transform="translate(-262.647 -1133.289)" fill="#272425"/>
      </g>
      <g id="Group_4319" data-name="Group 4319" transform="translate(24.327)">
        <path id="Path_3743" data-name="Path 3743" d="M325.359,1134.76H389.2a.736.736,0,0,0,0-1.471H325.359a.736.736,0,0,0,0,1.471Z" transform="translate(-324.647 -1133.289)" fill="#272425"/>
      </g>
      <g id="Group_4320" data-name="Group 4320" transform="translate(92.769)">
        <path id="Path_3744" data-name="Path 3744" d="M499.794,1134.76H503a.736.736,0,0,0,0-1.471h-3.2a.736.736,0,0,0,0,1.471Z" transform="translate(-499.082 -1133.289)" fill="#272425"/>
      </g>
      <g id="Group_4321" data-name="Group 4321" transform="translate(99.565)">
        <path id="Path_3745" data-name="Path 3745" d="M517.116,1134.76h6.8a.736.736,0,0,0,0-1.471h-6.8a.736.736,0,0,0,0,1.471Z" transform="translate(-516.404 -1133.289)" fill="#272425"/>
      </g>
    </g>
    <g id="Group_4323" data-name="Group 4323" transform="translate(283.912 900.948)">
      <path id="Path_3746" data-name="Path 3746" d="M424.638,1065.786l.126.293c.567-.243,1.133-.507,1.682-.783l-.143-.284C425.759,1065.284,425.2,1065.545,424.638,1065.786Z" transform="translate(-382.343 -1008.815)" fill="none" stroke="#272425" stroke-miterlimit="10" stroke-width="0.812"/>
      <path id="Path_3747" data-name="Path 3747" d="M415.834,1069.262l.089.306c.59-.172,1.184-.363,1.764-.57l-.107-.3C417.005,1068.9,416.418,1069.092,415.834,1069.262Z" transform="translate(-376.994 -1011.054)" fill="none" stroke="#272425" stroke-miterlimit="10" stroke-width="0.812"/>
      <path id="Path_3748" data-name="Path 3748" d="M423.08,924.418c-.565-.252-1.145-.488-1.721-.7l-.111.3c.57.213,1.143.446,1.7.7Z" transform="translate(-380.284 -922.958)" fill="none" stroke="#272425" stroke-miterlimit="10" stroke-width="0.812"/>
      <path id="Path_3749" data-name="Path 3749" d="M432.994,1061.272l.16.276c.533-.31,1.062-.64,1.575-.983l-.177-.265C434.045,1060.639,433.521,1060.966,432.994,1061.272Z" transform="translate(-387.421 -1005.952)" fill="none" stroke="#272425" stroke-miterlimit="10" stroke-width="0.812"/>
      <path id="Path_3750" data-name="Path 3750" d="M431.575,928.472c-.527-.317-1.072-.622-1.621-.908l-.147.283c.543.283,1.083.585,1.6.9Z" transform="translate(-385.484 -925.297)" fill="none" stroke="#272425" stroke-miterlimit="10" stroke-width="0.812"/>
      <path id="Path_3751" data-name="Path 3751" d="M467.181,970.879c-.181-.589-.383-1.18-.6-1.756l-.3.112c.214.57.414,1.155.593,1.738Z" transform="translate(-407.648 -950.55)" fill="none" stroke="#272425" stroke-miterlimit="10" stroke-width="0.812"/>
      <path id="Path_3752" data-name="Path 3752" d="M470.818,989.343l.318-.017c-.033-.618-.086-1.24-.155-1.85l-.317.036C470.733,988.116,470.785,988.732,470.818,989.343Z" transform="translate(-410.31 -961.702)" fill="none" stroke="#272425" stroke-miterlimit="10" stroke-width="0.812"/>
      <path id="Path_3753" data-name="Path 3753" d="M469.721,979.975c-.108-.609-.236-1.22-.38-1.817l-.31.075c.143.591.269,1.2.375,1.8Z" transform="translate(-409.318 -956.04)" fill="none" stroke="#272425" stroke-miterlimit="10" stroke-width="0.812"/>
      <path id="Path_3754" data-name="Path 3754" d="M458.891,953.954c-.319-.528-.658-1.053-1.007-1.559l-.263.181c.346.5.682,1.02,1,1.543Z" transform="translate(-402.385 -940.385)" fill="none" stroke="#272425" stroke-miterlimit="10" stroke-width="0.812"/>
      <path id="Path_3755" data-name="Path 3755" d="M463.553,962.16c-.252-.563-.525-1.125-.81-1.67l-.283.148c.282.539.552,1.095.8,1.652Z" transform="translate(-405.326 -945.304)" fill="none" stroke="#272425" stroke-miterlimit="10" stroke-width="0.812"/>
      <path id="Path_3756" data-name="Path 3756" d="M446.782,939.536c-.437-.436-.893-.864-1.354-1.271l-.211.239c.456.4.906.826,1.34,1.258Z" transform="translate(-394.848 -931.799)" fill="none" stroke="#272425" stroke-miterlimit="10" stroke-width="0.812"/>
      <path id="Path_3757" data-name="Path 3757" d="M467.488,1017.222l.3.1c.189-.588.362-1.188.515-1.787l-.309-.079C467.847,1016.046,467.675,1016.641,467.488,1017.222Z" transform="translate(-408.381 -978.702)" fill="none" stroke="#272425" stroke-miterlimit="10" stroke-width="0.812"/>
      <path id="Path_3758" data-name="Path 3758" d="M471.063,996.917c0,.612-.026,1.23-.067,1.836l.318.021c.041-.613.064-1.237.068-1.855Z" transform="translate(-410.512 -967.438)" fill="none" stroke="#272425" stroke-miterlimit="10" stroke-width="0.812"/>
      <path id="Path_3759" data-name="Path 3759" d="M469.806,1008.073l.313.06c.116-.6.214-1.221.292-1.834l-.316-.04C470.017,1006.864,469.92,1007.474,469.806,1008.073Z" transform="translate(-409.789 -973.114)" fill="none" stroke="#272425" stroke-miterlimit="10" stroke-width="0.812"/>
      <path id="Path_3760" data-name="Path 3760" d="M459.615,1034.465l.271.168c.326-.523.64-1.063.933-1.606l-.28-.152C460.248,1033.412,459.938,1033.947,459.615,1034.465Z" transform="translate(-403.597 -989.288)" fill="none" stroke="#272425" stroke-miterlimit="10" stroke-width="0.812"/>
      <path id="Path_3761" data-name="Path 3761" d="M464.072,1026.067l.289.134c.259-.557.505-1.132.731-1.709l-.3-.116C464.572,1024.947,464.328,1025.515,464.072,1026.067Z" transform="translate(-406.305 -984.123)" fill="none" stroke="#272425" stroke-miterlimit="10" stroke-width="0.812"/>
      <path id="Path_3762" data-name="Path 3762" d="M439.515,933.537c-.487-.38-.991-.749-1.5-1.1l-.18.263c.5.345,1,.711,1.482,1.087Z" transform="translate(-390.363 -928.259)" fill="none" stroke="#272425" stroke-miterlimit="10" stroke-width="0.812"/>
      <path id="Path_3763" data-name="Path 3763" d="M454.189,1042.292l.248.2c.388-.48.765-.978,1.122-1.48l-.26-.185C454.945,1041.325,454.572,1041.817,454.189,1042.292Z" transform="translate(-400.3 -994.12)" fill="none" stroke="#272425" stroke-miterlimit="10" stroke-width="0.812"/>
      <path id="Path_3764" data-name="Path 3764" d="M440.779,1055.8l.193.254c.489-.371.975-.764,1.444-1.167l-.208-.241C441.744,1055.039,441.264,1055.428,440.779,1055.8Z" transform="translate(-392.151 -1002.513)" fill="none" stroke="#272425" stroke-miterlimit="10" stroke-width="0.812"/>
      <path id="Path_3765" data-name="Path 3765" d="M447.88,1049.436l.222.229c.44-.427.875-.876,1.293-1.334l-.236-.215C448.746,1048.57,448.316,1049.013,447.88,1049.436Z" transform="translate(-396.466 -998.549)" fill="none" stroke="#272425" stroke-miterlimit="10" stroke-width="0.812"/>
      <path id="Path_3766" data-name="Path 3766" d="M453.273,946.373c-.381-.485-.781-.965-1.19-1.425l-.238.212c.4.456.8.93,1.178,1.411Z" transform="translate(-398.875 -935.86)" fill="none" stroke="#272425" stroke-miterlimit="10" stroke-width="0.812"/>
      <path id="Path_3767" data-name="Path 3767" d="M322.39,965.748l-.293-.126c-.254.588-.493,1.191-.708,1.792l.3.108C321.9,966.927,322.138,966.331,322.39,965.748Z" transform="translate(-319.606 -948.422)" fill="none" stroke="#272425" stroke-miterlimit="10" stroke-width="0.812"/>
      <path id="Path_3768" data-name="Path 3768" d="M318.775,1013.575c.142.623.305,1.25.487,1.863l.306-.091c-.179-.606-.341-1.226-.481-1.843Z" transform="translate(-318.017 -977.517)" fill="none" stroke="#272425" stroke-miterlimit="10" stroke-width="0.812"/>
      <path id="Path_3769" data-name="Path 3769" d="M321.553,1022.914c.219.6.461,1.2.718,1.784l.292-.129c-.254-.578-.494-1.172-.711-1.765Z" transform="translate(-319.705 -983.169)" fill="none" stroke="#272425" stroke-miterlimit="10" stroke-width="0.812"/>
      <path id="Path_3770" data-name="Path 3770" d="M319.449,974.949l-.306-.089c-.177.612-.336,1.24-.474,1.865l.311.069C319.116,976.176,319.274,975.554,319.449,974.949Z" transform="translate(-317.952 -954.036)" fill="none" stroke="#272425" stroke-miterlimit="10" stroke-width="0.812"/>
      <path id="Path_3771" data-name="Path 3771" d="M317.211,1003.956c.062.635.144,1.277.246,1.908l.315-.051c-.1-.625-.183-1.26-.244-1.888Z" transform="translate(-317.067 -971.697)" fill="none" stroke="#272425" stroke-miterlimit="10" stroke-width="0.812"/>
      <path id="Path_3772" data-name="Path 3772" d="M317.715,984.485l-.315-.049c-.1.631-.177,1.274-.234,1.91l.317.029C317.541,985.745,317.618,985.109,317.715,984.485Z" transform="translate(-317.04 -959.854)" fill="none" stroke="#272425" stroke-miterlimit="10" stroke-width="0.812"/>
      <path id="Path_3773" data-name="Path 3773" d="M326.492,957.045l-.274-.162c-.327.551-.64,1.118-.93,1.686l.284.145C325.859,958.152,326.168,957.59,326.492,957.045Z" transform="translate(-321.975 -943.112)" fill="none" stroke="#272425" stroke-miterlimit="10" stroke-width="0.812"/>
      <path id="Path_3774" data-name="Path 3774" d="M317.163,995.068q0-.43.012-.857l-.319-.009q-.012.432-.012.867,0,.531.018,1.058l.318-.011Q317.163,995.593,317.163,995.068Z" transform="translate(-316.844 -965.788)" fill="none" stroke="#272425" stroke-miterlimit="10" stroke-width="0.812"/>
      <path id="Path_3775" data-name="Path 3775" d="M352.825,929.753l-.162-.275c-.55.324-1.1.669-1.628,1.027l.179.265C351.739,930.415,352.281,930.073,352.825,929.753Z" transform="translate(-337.62 -926.46)" fill="none" stroke="#272425" stroke-miterlimit="10" stroke-width="0.812"/>
      <path id="Path_3776" data-name="Path 3776" d="M359.906,1065.458c.571.284,1.16.555,1.751.8l.124-.293c-.585-.246-1.168-.513-1.733-.794Z" transform="translate(-343.01 -1008.913)" fill="none" stroke="#272425" stroke-miterlimit="10" stroke-width="0.812"/>
      <path id="Path_3777" data-name="Path 3777" d="M361.233,925.059c-.585.25-1.172.524-1.744.813l.144.284c.566-.286,1.146-.556,1.725-.8Z" transform="translate(-342.757 -923.775)" fill="none" stroke="#272425" stroke-miterlimit="10" stroke-width="0.812"/>
      <path id="Path_3778" data-name="Path 3778" d="M325.5,1031.825c.294.567.61,1.132.939,1.679l.273-.164c-.326-.541-.638-1.1-.929-1.662Z" transform="translate(-322.104 -988.561)" fill="none" stroke="#272425" stroke-miterlimit="10" stroke-width="0.812"/>
      <path id="Path_3779" data-name="Path 3779" d="M343.615,1054.661c.483.419.985.828,1.493,1.215l.193-.254c-.5-.383-1-.787-1.478-1.2Z" transform="translate(-333.111 -1002.379)" fill="none" stroke="#272425" stroke-miterlimit="10" stroke-width="0.812"/>
      <path id="Path_3780" data-name="Path 3780" d="M370.33,921.786c-.614.175-1.231.371-1.832.584l.107.3c.594-.211,1.2-.4,1.812-.578Z" transform="translate(-348.231 -921.786)" fill="none" stroke="#272425" stroke-miterlimit="10" stroke-width="0.812"/>
      <path id="Path_3781" data-name="Path 3781" d="M368.953,1069.236c.6.21,1.221.4,1.839.574l.085-.307c-.611-.169-1.224-.361-1.82-.568Z" transform="translate(-348.507 -1011.199)" fill="none" stroke="#272425" stroke-miterlimit="10" stroke-width="0.812"/>
      <path id="Path_3782" data-name="Path 3782" d="M351.416,1060.57c.53.354,1.08.7,1.635,1.018l.16-.276c-.549-.318-1.093-.657-1.618-1.007Z" transform="translate(-337.851 -1005.955)" fill="none" stroke="#272425" stroke-miterlimit="10" stroke-width="0.812"/>
      <path id="Path_3783" data-name="Path 3783" d="M330.553,1040.174c.363.525.747,1.046,1.143,1.548l.25-.2c-.392-.5-.772-1.012-1.131-1.531Z" transform="translate(-325.174 -993.613)" fill="none" stroke="#272425" stroke-miterlimit="10" stroke-width="0.812"/>
      <path id="Path_3784" data-name="Path 3784" d="M344.954,935.22l-.2-.252c-.507.391-1.006.8-1.486,1.223l.21.239C343.957,936.015,344.452,935.608,344.954,935.22Z" transform="translate(-332.903 -929.796)" fill="none" stroke="#272425" stroke-miterlimit="10" stroke-width="0.812"/>
      <path id="Path_3785" data-name="Path 3785" d="M331.681,948.974l-.251-.2c-.393.5-.775,1.027-1.135,1.556l.263.179C330.915,949.991,331.293,949.473,331.681,948.974Z" transform="translate(-325.017 -938.187)" fill="none" stroke="#272425" stroke-miterlimit="10" stroke-width="0.812"/>
      <path id="Path_3786" data-name="Path 3786" d="M337.869,941.661l-.225-.226c-.451.449-.9.92-1.321,1.4l.239.212C336.982,942.572,337.422,942.106,337.869,941.661Z" transform="translate(-328.68 -933.725)" fill="none" stroke="#272425" stroke-miterlimit="10" stroke-width="0.812"/>
      <path id="Path_3787" data-name="Path 3787" d="M336.624,1047.824c.428.477.875.946,1.329,1.392l.223-.228c-.449-.442-.891-.906-1.315-1.378Z" transform="translate(-328.863 -998.242)" fill="none" stroke="#272425" stroke-miterlimit="10" stroke-width="0.812"/>
    </g>
    <g id="Group_4324" data-name="Group 4324" transform="translate(276.258 887.492)">
      <path id="Path_3788" data-name="Path 3788" d="M331.3,966.47a36.7,36.7,0,0,1-32.364-37.8c.709-18.582,16.225-33.561,34.545-34.545l-4.1,3.176c-.789.612.317,1.7,1.1,1.1l5.687-4.407a.667.667,0,0,0,.208-.169.779.779,0,0,0-.026-1.069l-5.438-5.046c-.732-.679-1.831.415-1.1,1.1l4.052,3.76a38.3,38.3,0,0,0-35.35,28.445c-4.463,17.059,4.092,35.214,19.659,43.18A38.044,38.044,0,0,0,331.3,968.02C332.293,968.132,332.282,966.58,331.3,966.47Z" transform="translate(-297.335 -887.492)" fill="#272425"/>
      <path id="Path_3789" data-name="Path 3789" d="M408.2,904.145a38.066,38.066,0,0,0-12.725-3.52c-.994-.1-.984,1.448,0,1.55a36.7,36.7,0,0,1,32.673,37.781c-.687,18.811-16.556,33.954-35.163,34.634-.119,0-.238,0-.357.005l4.415-3.464c.786-.617-.319-1.706-1.1-1.1l-5.842,4.584a.773.773,0,0,0,0,1.1l5.468,5.013c.735.675,1.835-.419,1.1-1.1l-3.82-3.5a38.293,38.293,0,0,0,35.861-29.043C432.915,929.894,424,911.809,408.2,904.145Z" transform="translate(-353.57 -895.469)" fill="#272425"/>
    </g>
    <path id="Path_3790" data-name="Path 3790" d="M385.94,943.906H371.862l7.46-15.7a.807.807,0,0,0-.688-1.2h-9.207a.618.618,0,0,0-.756.395l-9.758,22.773a.808.808,0,0,0,.688,1.2l13.517-.331-13.806,29.248a.8.8,0,0,0,1.376.8l25.94-35.992A.8.8,0,0,0,385.94,943.906ZM364.4,973.232l10.675-22.613a.806.806,0,0,0-.688-1.2l-13.572.333,9.062-21.15h7.5l-7.46,15.7a.807.807,0,0,0,.688,1.2h13.783Z" transform="translate(-58.445 -23.998)" fill="#272425"/>
  </g>
</svg>
