<svg id="SUn" xmlns="http://www.w3.org/2000/svg" width="61.796" height="43.245" viewBox="0 0 61.796 43.245">
  <path id="Fill-1" d="M34.53,7.25a1.816,1.816,0,0,1-1.817-1.812V1.813a1.817,1.817,0,0,1,3.635,0V5.438A1.816,1.816,0,0,1,34.53,7.25" fill="#fcc615" fill-rule="evenodd"/>
  <path id="Fill-3" d="M12.725,14.4a1.828,1.828,0,0,1-1.287-.529L7.8,10.247A1.817,1.817,0,0,1,10.377,7.68l3.635,3.625a1.812,1.812,0,0,1-1.287,3.1" fill="#fcc615" fill-rule="evenodd"/>
  <path id="Fill-5" d="M56.343,14.4a1.812,1.812,0,0,1-1.287-3.1L58.691,7.68a1.817,1.817,0,0,1,2.574,2.567L57.63,13.872a1.828,1.828,0,0,1-1.287.529" fill="#fcc615" fill-rule="evenodd"/>
  <path id="Fill-7" d="M5.452,36.25H1.817a1.813,1.813,0,1,1,0-3.625H5.452a1.813,1.813,0,1,1,0,3.625" fill="#fcc615" fill-rule="evenodd"/>
  <path id="Fill-11" d="M13.939,43.245a1.82,1.82,0,0,1-1.716-1.211,23.058,23.058,0,0,1-1.316-7.7A23.621,23.621,0,0,1,52.2,18.711a1.816,1.816,0,0,1-2.719,2.407A19.983,19.983,0,0,0,14.543,34.331a19.42,19.42,0,0,0,1.112,6.5,1.815,1.815,0,0,1-1.112,2.313,1.836,1.836,0,0,1-.6.1" fill="#fcc615" fill-rule="evenodd"/>
</svg>
