<svg xmlns="http://www.w3.org/2000/svg" width="93.098" height="98.268" viewBox="0 0 93.098 98.268">
  <g id="Group_4317" data-name="Group 4317" transform="translate(-262.359 -497.027)">
    <circle id="Ellipse_5" data-name="Ellipse 5" cx="4.294" cy="4.294" r="4.294" transform="translate(302.394 546.766) rotate(-45)" fill="#f5dc3a" stroke="#f5dc3a" stroke-miterlimit="10" stroke-width="1.083"/>
    <g id="Group_4306" data-name="Group 4306" transform="translate(262.359 497.643)">
      <path id="Path_3711" data-name="Path 3711" d="M381.023,499.23v40.125c0,.291-.526.472-.943.322-3.8-1.359-16.977-8.6-.277-40.557C380.018,498.71,381.023,498.8,381.023,499.23Z" transform="translate(-334.77 -498.855)" fill="#82c9c0"/>
      <path id="Path_3712" data-name="Path 3712" d="M463.15,663.113l-37.224-14.979c-.27-.109-.241-.664.053-.995,2.678-3.014,14.316-12.54,37.729,14.884C464.008,662.374,463.548,663.274,463.15,663.113Z" transform="translate(-370.706 -594.495)" fill="#82c9c0"/>
      <path id="Path_3713" data-name="Path 3713" d="M262.513,677.843l35.536-18.632c.258-.136.662.247.723.685.559,3.993.268,19.03-35.791,19.079C262.52,678.976,262.133,678.043,262.513,677.843Z" transform="translate(-262.359 -605.178)" fill="#82c9c0"/>
    </g>
    <g id="Group_4310" data-name="Group 4310" transform="translate(262.456 594.032)">
      <g id="Group_4307" data-name="Group 4307" transform="translate(0)">
        <path id="Path_3714" data-name="Path 3714" d="M263.258,786.27h16.383a.632.632,0,0,0,0-1.263H263.258a.632.632,0,0,0,0,1.263Z" transform="translate(-262.647 -785.007)" fill="#272425"/>
      </g>
      <g id="Group_4308" data-name="Group 4308" transform="translate(79.642)">
        <path id="Path_3715" data-name="Path 3715" d="M499.693,786.27h2.751a.632.632,0,0,0,0-1.263h-2.751a.632.632,0,0,0,0,1.263Z" transform="translate(-499.082 -785.007)" fill="#272425"/>
      </g>
      <g id="Group_4309" data-name="Group 4309" transform="translate(85.477)">
        <path id="Path_3716" data-name="Path 3716" d="M517.015,786.27h5.834a.632.632,0,0,0,0-1.263h-5.834a.632.632,0,0,0,0,1.263Z" transform="translate(-516.404 -785.007)" fill="#272425"/>
      </g>
    </g>
    <g id="Group_4313" data-name="Group 4313" transform="translate(264.708 497.027)">
      <g id="Group_4311" data-name="Group 4311" transform="translate(40.591 46.571)">
        <path id="Path_3717" data-name="Path 3717" d="M393.593,641.079a1.9,1.9,0,0,0,3.8,0C397.263,638.641,393.461,638.628,393.593,641.079Z" transform="translate(-392.326 -637.911)" fill="#fff"/>
        <path id="Path_3718" data-name="Path 3718" d="M396.169,638.452a.646.646,0,0,0-.018-.185,3.157,3.157,0,1,0-3.146,3.349,3.173,3.173,0,0,0,3.145-2.975A.646.646,0,0,0,396.169,638.452Zm-5.064,0c-.132-2.451,3.669-2.438,3.8,0A1.9,1.9,0,0,1,391.105,638.452Z" transform="translate(-389.838 -635.285)" fill="#272425"/>
      </g>
      <g id="Group_4312" data-name="Group 4312" transform="translate(0 0)">
        <path id="Path_3719" data-name="Path 3719" d="M455.669,665.959a27.333,27.333,0,0,0-6.525-5.909c-6.461-4.524-14.172-7.06-21.9-8.308-.8-.128-1.138,1.089-.336,1.218a52.787,52.787,0,0,1,21.34,8,34.64,34.64,0,0,1,4.68,3.763l-37.947-15.152c-.757-.3-1.083.92-.336,1.218l40.312,16.1A.636.636,0,0,0,455.669,665.959Z" transform="translate(-365.416 -598.157)" fill="#272425"/>
        <path id="Path_3720" data-name="Path 3720" d="M308.183,649.882,269.65,669.868c-.6.312-.262,1.13.319,1.177a27.277,27.277,0,0,0,8.737-1.114c7.652-1.962,14.576-6.157,20.584-11.2.625-.524-.273-1.413-.893-.893a52.457,52.457,0,0,1-20.026,10.871,31.957,31.957,0,0,1-5.8,1.06l36.246-18.8C309.543,650.6,308.9,649.508,308.183,649.882Z" transform="translate(-269.334 -598.343)" fill="#272425"/>
        <path id="Path_3721" data-name="Path 3721" d="M389.36,497.324a27.407,27.407,0,0,0-3.188,8.388c-1.837,7.629-1.418,15.649.178,23.276.166.8,1.384.459,1.218-.336a52.29,52.29,0,0,1-.1-22.939,32.056,32.056,0,0,1,1.769-5.47q-.271,20.4-.543,40.8a.632.632,0,0,0,1.263,0l.578-43.4A.636.636,0,0,0,389.36,497.324Z" transform="translate(-346.014 -497.027)" fill="#272425"/>
      </g>
    </g>
    <path id="Path_3722" data-name="Path 3722" d="M380.066,704.724H350.405V664.555a.632.632,0,0,0-1.263,0v40.168H325.258a.632.632,0,0,0,0,1.263h54.808A.632.632,0,0,0,380.066,704.724Z" transform="translate(-41.307 -110.692)" fill="#272425"/>
    <g id="Group_4314" data-name="Group 4314" transform="translate(318.012 559.829)">
      <path id="Path_3723" data-name="Path 3723" d="M435.328,704.566l.252.625c.437-.177.874-.368,1.3-.57l-.29-.608C436.177,704.208,435.752,704.395,435.328,704.566Z" transform="translate(-432.717 -697.092)" fill="#272425"/>
      <path id="Path_3724" data-name="Path 3724" d="M442.707,700.76l.326.589c.412-.228.823-.472,1.219-.724l-.361-.569C443.506,700.3,443.107,700.538,442.707,700.76Z" transform="translate(-437.611 -694.469)" fill="#272425"/>
      <path id="Path_3725" data-name="Path 3725" d="M427.578,707.463l.174.651c.457-.122.914-.259,1.358-.408l-.214-.639C428.465,707.211,428.022,707.344,427.578,707.463Z" transform="translate(-427.578 -699.118)" fill="#272425"/>
      <path id="Path_3726" data-name="Path 3726" d="M461.576,684.547l.514.436c.3-.36.6-.733.884-1.11l-.54-.4C462.16,683.835,461.872,684.2,461.576,684.547Z" transform="translate(-450.124 -683.469)" fill="#272425"/>
      <path id="Path_3727" data-name="Path 3727" d="M455.926,690.675l.458.494c.347-.322.687-.656,1.011-1l-.487-.466C456.593,690.037,456.263,690.362,455.926,690.675Z" transform="translate(-446.377 -687.607)" fill="#272425"/>
      <path id="Path_3728" data-name="Path 3728" d="M449.6,696.106l.4.545c.382-.277.76-.569,1.123-.866l-.427-.521C450.344,695.554,449.977,695.837,449.6,696.106Z" transform="translate(-442.185 -691.292)" fill="#272425"/>
    </g>
    <g id="Group_4315" data-name="Group 4315" transform="translate(277.324 543.443)">
      <path id="Path_3729" data-name="Path 3729" d="M307.525,643.141l-.673.032c.022.471.059.946.109,1.414l.67-.072C307.582,644.06,307.546,643.6,307.525,643.141Z" transform="translate(-306.83 -640.339)" fill="#272425"/>
      <path id="Path_3730" data-name="Path 3730" d="M308.421,651.267l-.664.113c.079.465.173.932.28,1.39l.656-.153C308.59,652.173,308.5,651.718,308.421,651.267Z" transform="translate(-307.43 -645.728)" fill="#272425"/>
      <path id="Path_3731" data-name="Path 3731" d="M307.521,634.873l-.672-.051c-.036.472-.057.948-.064,1.416l.673.01C307.466,635.793,307.487,635.331,307.521,634.873Z" transform="translate(-306.786 -634.822)" fill="#272425"/>
      <path id="Path_3732" data-name="Path 3732" d="M316.96,674.189l-.581.342c.239.406.493.81.756,1.2l.559-.376C317.439,674.976,317.192,674.583,316.96,674.189Z" transform="translate(-313.148 -660.928)" fill="#272425"/>
      <path id="Path_3733" data-name="Path 3733" d="M313.175,666.9l-.617.269c.189.433.392.865.605,1.282l.6-.306C313.557,667.743,313.359,667.324,313.175,666.9Z" transform="translate(-310.614 -656.097)" fill="#272425"/>
      <path id="Path_3734" data-name="Path 3734" d="M310.314,659.227l-.645.193c.135.452.286.905.446,1.346l.633-.231C310.592,660.106,310.446,659.666,310.314,659.227Z" transform="translate(-308.698 -651.006)" fill="#272425"/>
    </g>
    <g id="Group_4316" data-name="Group 4316" transform="translate(311.149 513.832)">
      <path id="Path_3735" data-name="Path 3735" d="M437.2,563.266l.467-.485c-.339-.327-.693-.647-1.051-.952l-.437.513C436.532,562.637,436.875,562.948,437.2,563.266Z" transform="translate(-426.422 -556.805)" fill="#272425"/>
      <path id="Path_3736" data-name="Path 3736" d="M430.778,558.123l.4-.539c-.377-.283-.766-.558-1.158-.818l-.372.562C430.034,557.581,430.412,557.848,430.778,558.123Z" transform="translate(-422.091 -553.449)" fill="#272425"/>
      <path id="Path_3737" data-name="Path 3737" d="M442.967,569.166l.523-.425c-.3-.367-.61-.728-.927-1.073l-.5.456C442.375,568.459,442.677,568.809,442.967,569.166Z" transform="translate(-430.323 -560.678)" fill="#272425"/>
      <path id="Path_3738" data-name="Path 3738" d="M408.536,547.917l.188-.647c-.453-.131-.915-.25-1.374-.353l-.148.657C407.648,547.675,408.1,547.79,408.536,547.917Z" transform="translate(-407.202 -546.917)" fill="#272425"/>
      <path id="Path_3739" data-name="Path 3739" d="M416.338,550.4l.264-.62c-.435-.185-.879-.359-1.321-.516l-.226.635C415.484,550.047,415.915,550.216,416.338,550.4Z" transform="translate(-412.41 -548.471)" fill="#272425"/>
      <path id="Path_3740" data-name="Path 3740" d="M423.79,553.814l.337-.583c-.409-.236-.829-.462-1.249-.672l-.3.6C422.984,553.365,423.392,553.585,423.79,553.814Z" transform="translate(-417.397 -550.659)" fill="#272425"/>
    </g>
  </g>
</svg>
